<?xml version="1.0" encoding="UTF-8" standalone="no"?>
<!-- Created with Inkscape (http://www.inkscape.org/) -->

<svg
   width="143.21364mm"
   height="132.59799mm"
   viewBox="0 0 143.21364 132.59799"
   version="1.1"
   id="svg5"
   inkscape:version="1.1 (c68e22c387, 2021-05-23)"
   sodipodi:docname="ipp.svg"
   xmlns:inkscape="http://www.inkscape.org/namespaces/inkscape"
   xmlns:sodipodi="http://sodipodi.sourceforge.net/DTD/sodipodi-0.dtd"
   xmlns="http://www.w3.org/2000/svg"
   xmlns:svg="http://www.w3.org/2000/svg">
  <sodipodi:namedview
     id="namedview7"
     pagecolor="#ffffff"
     bordercolor="#666666"
     borderopacity="1.0"
     inkscape:pageshadow="2"
     inkscape:pageopacity="0.0"
     inkscape:pagecheckerboard="0"
     inkscape:document-units="mm"
     showgrid="false"
     fit-margin-top="5"
     fit-margin-left="5"
     fit-margin-right="5"
     fit-margin-bottom="5"
     inkscape:zoom="0.76791526"
     inkscape:cx="-167.98728"
     inkscape:cy="440.80384"
     inkscape:window-width="1920"
     inkscape:window-height="1051"
     inkscape:window-x="-9"
     inkscape:window-y="-9"
     inkscape:window-maximized="1"
     inkscape:current-layer="layer1" />
  <defs
     id="defs2" />
  <g
     inkscape:label="Calque 1"
     inkscape:groupmode="layer"
     id="layer1"
     transform="translate(-15.822351,-32.129033)">
    <path
       style="fill:#ffffff;fill-opacity:1;stroke-width:0.264583"
       d="m 85.905837,159.52856 c -7.741928,-0.93593 -16.233444,-3.7101 -23.085586,-7.54204 l -1.665534,-0.93142 0.601602,-0.73828 c 8.833273,-10.84016 14.709547,-18.6798 27.817191,-37.11139 l 5.772398,-8.11698 2.15913,1.52097 c 1.97544,1.39157 3.853082,2.67655 12.533672,8.57749 4.64722,3.15911 7.75988,4.53088 12.16479,5.36109 3.3853,0.63804 9.42105,0.40374 12.51796,-0.48593 8.13632,-2.33739 14.46194,-7.42164 18.12057,-14.56451 1.15163,-2.24834 1.19401,-2.29531 1.19396,-1.32292 -8e-5,1.49365 -0.94377,6.99837 -1.69235,9.87173 -2.26446,8.69194 -6.58227,17.02562 -12.40619,23.94479 -9.44822,11.22506 -22.1381,18.48544 -36.8337,21.07403 -3.411809,0.60098 -13.754522,0.87965 -17.197913,0.46337 z m -29.489249,-11.739 C 46.096515,140.06861 38.624806,129.65996 34.60166,117.39974 32.576769,111.22904 31.687357,105.31331 31.71073,98.171367 31.74248,88.468681 33.660482,80.214546 37.889537,71.58074 40.45005,66.35334 40.168028,66.610859 41.93822,67.883812 53.855699,76.45374 64.347164,83.7977 82.124518,96.013976 l 5.479095,3.765131 -1.800998,2.834153 c -9.348806,14.71177 -20.393128,33.37238 -26.069142,44.04671 l -1.373703,2.58339 z m 67.054052,-37.56817 c -3.08056,-0.55977 -5.1708,-1.66098 -14.07686,-7.41616 l -8.52664,-5.510001 1.14973,-1.612453 c 1.88675,-2.646082 13.58185,-19.584503 16.43272,-23.80007 1.4552,-2.151809 2.76489,-4.075583 2.91041,-4.275056 0.20954,-0.287215 1.99297,0.786556 8.572,5.161045 4.56908,3.038046 8.8998,6.097185 9.62382,6.79809 1.9564,1.893946 3.70519,4.716204 4.58422,7.39819 0.68522,2.090642 0.7668,2.698877 0.75783,5.65014 -0.009,2.996633 -0.0858,3.521464 -0.81631,5.587402 -3.07023,8.682533 -11.59966,13.656313 -20.61092,12.018873 z M 88.022504,89.08956 C 66.487571,75.214715 52.910898,66.65215 45.755316,62.432401 c -0.836745,-0.493443 -1.521354,-0.982232 -1.521354,-1.0862 0,-0.321593 2.619989,-3.419641 4.733975,-5.597766 20.610005,-21.235313 53.410243,-24.725478 78.080603,-8.3083 6.50127,4.326342 12.68682,10.539984 17.05171,17.129146 1.58006,2.385224 4.11496,6.844237 4.11496,7.238402 0,0.100897 -0.77809,-0.476631 -1.7291,-1.283393 -1.40384,-1.190916 -27.64538,-18.919592 -28.0043,-18.919592 -0.28211,0 -22.590082,34.514769 -25.437512,39.356771 -0.278122,0.472943 -0.569304,0.85893 -0.64707,0.857753 -0.07776,-0.0012 -2.046391,-1.229527 -4.374724,-2.729662 z M 24.995251,61.400539 c -4.488866,-2.270723 -5.557071,-7.907803 -2.218944,-11.70972 1.351433,-1.539198 3.205252,-2.319454 5.51081,-2.319454 3.196066,0 5.293066,1.26397 6.670638,4.020735 1.319411,2.640375 1.086747,5.723697 -0.599522,7.944977 -1.282983,1.690047 -3.265414,2.655364 -5.725044,2.787735 -1.822392,0.09808 -2.135513,0.03574 -3.637938,-0.724273 z"
       id="path57" />
  </g>
</svg>
